<svg xmlns="http://www.w3.org/2000/svg" viewBox="0 0 240 240"><rect width="240" height="240" fill="#fff7e6"/><g fill="#ffe1a3" stroke="#80530e" stroke-width="4" stroke-linecap="round" stroke-linejoin="round"><rect x="87" y="51" width="66" height="138" rx="16"/><path d="m88 62 64 20m0-20-64 20"/><path d="m88 77 64 20m0-20-64 20"/><path d="m88 92 64 20m0-20-64 20"/><path d="m88 107 64 20m0-20-64 20"/><path d="m88 122 64 20m0-20-64 20"/><path d="m88 137 64 20m0-20-64 20"/><path d="m88 152 64 20m0-20-64 20"/><path d="m88 167 64 20m0-20-64 20"/><ellipse cx="120" cy="51" rx="33" ry="10"/><ellipse cx="120" cy="51" rx="12" ry="4"/></g></svg>
